<svg xmlns="http://www.w3.org/2000/svg" xml:space="preserve" width="2000" height="1500" data-id="lg_NGln5K2HFpTEL5yt37" data-version="1" viewBox="0 0 2000 1500"><path stroke="transparent" d="M0 0h2000v1500H0z"/><g data-padding="20"><g transform="translate(-1645.487 -1234.032)scale(2.5766)"><rect width="261.208" height="665.421" x="-568.454" y="413.402" fill="#f9ae25" rx="60.39" ry="60.39" transform="matrix(0 -.84 .84 0 400 503.02)"/><rect width="137.323" height="625.033" x="-506.512" y="433.596" fill="none" stroke="#000" stroke-width="10" rx="60.39" ry="60.39" transform="matrix(0 -.84 .84 0 399.61 537.22)"/><rect width="214.727" height="71.19" x="519.37" y="332.199" fill="none" rx="0" ry="0" transform="translate(400.5 538.21)"/><path d="M922.634 925.794v-44.1h6.93v37.8h11.4v6.3Zm19.84 0 7.19-44.1h9.38l7.18 44.1h-6.93l-1.26-8.75v.12h-7.87l-1.26 8.63Zm8.51-14.61h6.24l-3.09-21.8h-.13Zm38.43 15.24q-4.98 0-7.59-2.83-2.62-2.84-2.62-8v-23.69q0-5.17 2.62-8 2.61-2.84 7.59-2.84t7.59 2.84q2.61 2.83 2.61 8v4.66h-6.55v-5.1q0-4.1-3.46-4.1-3.47 0-3.47 4.1v24.63q0 4.03 3.47 4.03 3.46 0 3.46-4.03v-6.74h6.55v6.24q0 5.16-2.61 8-2.61 2.83-7.59 2.83m24.45 0q-5.04 0-7.68-2.86-2.65-2.87-2.65-8.23v-33.64h6.93v34.15q0 2.27.91 3.27.92 1.01 2.62 1.01t2.61-1.01q.92-1 .92-3.27v-34.15h6.67v33.64q0 5.36-2.64 8.23-2.65 2.86-7.69 2.86m15.24-.63v-44.1h9.89l4.41 31.57h.13l4.41-31.57h9.89v44.1h-6.56v-33.39h-.12l-5.04 33.39h-5.8l-5.04-33.39h-.12v33.39Zm33.9 0v-44.1h10.46q5.36 0 7.81 2.49 2.46 2.49 2.46 7.66v1.76q0 3.4-1.1 5.54-1.11 2.15-3.37 3.09v.13q5.16 1.76 5.16 9.19v3.78q0 5.11-2.68 7.78-2.67 2.68-7.84 2.68Zm6.93-26.14h2.71q2.08 0 3.12-1.07t1.04-3.59v-2.46q0-2.4-.85-3.47t-2.68-1.07h-3.34Zm0 19.84h3.97q1.83 0 2.71-.97.88-.98.88-3.37v-3.85q0-3.02-1.04-4.19-1.04-1.16-3.43-1.16h-3.09Zm18.52 6.3v-44.1h10.27q5.36 0 7.82 2.49 2.45 2.49 2.45 7.66v2.7q0 6.87-4.53 8.7v.12q2.52.76 3.56 3.09t1.04 6.24v7.75q0 1.89.12 3.05.13 1.17.63 2.3h-7.05q-.38-1.07-.51-2.01-.12-.95-.12-3.41v-8.06q0-3.02-.98-4.22t-3.37-1.2h-2.4v18.9Zm6.93-25.2h2.52q2.08 0 3.12-1.07t1.04-3.59v-3.4q0-2.4-.85-3.47t-2.68-1.07h-3.15Zm18.46 25.2v-44.1h18.9v6.3h-11.97v11.66h9.52v6.3h-9.52v13.54h11.97v6.3Z"/><g fill="#f9ae25" stroke="#000" stroke-width="3.325" paint-order="stroke"><path d="M1024.241 825.266c-3.08-2.31-5.565-5.005-6.475-8.925-.28-1.295-1.505-1.68-2.765-1.47-3.115.49-4.2-1.855-3.92-4.27.28-2.555 1.12-4.9 2.485-7.105 2.905-4.62 4.935-9.66 4.9-15.085-.035-4.06-.105-8.295-2.03-12.145-.945-1.855-1.855-2.24-3.605-1.12-1.505.945-3.15 1.61-4.865 2.065-1.785.455-3.5 1.085-5.04 2.17-1.12.805-2.485 1.435-3.815.315-1.225-1.015-1.575-2.345-1.155-3.92.77-3.01 2.345-5.495 4.515-7.63 4.305-4.305 7.77-9.065 8.68-15.33.245-1.785 1.12-3.29 2.765-4.025 3.045-1.33 5.32-3.605 7.56-5.915 1.855-1.89 6.86-2.205 8.61-.245 2.275 2.555 5.425 3.99 7.595 6.615.665.84 1.54 1.54 1.68 2.66.945 6.965 5.005 12.32 9.38 17.325 2.1 2.45 3.01 5.075 3.43 8.085.14 1.155-.21 2.1-1.225 2.765-1.05.665-1.925.245-2.73-.42-2.8-2.345-6.16-3.395-9.52-4.48-1.54-.49-2.59-.14-3.115 1.365-1.61 4.585-3.57 9.03-3.08 14.21.49 4.97 2.205 9.345 4.62 13.58 1.295 2.275 2.695 4.48 1.855 7.315-.595 1.925-1.715 3.045-3.85 2.835-1.89-.21-2.765.665-3.115 2.52-.595 3.325-3.01 5.635-4.97 8.155-.945.105-1.89.105-2.8.105m-30.065-155.085c-.525-2.31.49-4.795 2.66-6.965 1.435-1.435 1.96-3.465 2.87-5.215 1.4-2.66 2.8-2.905 4.935-.735 1.995 2.03 3.605 4.375 4.62 7.07.98 2.555 2.135 3.045 4.655 1.925 3.045-1.365 5.145-3.815 6.79-6.65.735-1.26 1.295-2.625 2.03-3.885.735-1.225 1.61-1.085 2.275.07.665 1.12 1.155 2.345.735 3.71-.245.805-.455 1.645-.525 2.485-.7 7.105 6.23 11.655 13.055 8.75 4.69-1.995 7.63-5.495 9.905-9.8.28-.56.525-1.12.84-1.645 1.015-1.645 2.52-1.89 3.43-.28 1.365 2.345 3.29 4.235 4.795 6.44 1.89 2.8 1.645 6.055.98 9.135-1.505 7.07-4.9 13.125-9.94 18.375-4.76 4.97-10.045 9.555-13.58 15.575-4.9 5.67-6.755 19.25-7.14 20.3-.35 1.05-.91 1.855-2.065 1.82-1.085-.035-1.575-.945-1.785-1.855-.7-3.045-1.575-6.09-1.925-9.205-.455-3.99-2.555-7.175-4.34-10.535-2.835-5.285-6.965-9.485-11.305-13.545-5.67-5.425-9.625-11.865-11.445-19.565-.42-1.68-.35-3.36-.525-5.775m-10.255 98.63c-4.34-.21-8.645-1.155-13.055-.805-3.465.28-4.48 1.12-5.04 4.62-.56 3.465-1.12 6.965-1.995 10.36-.665 2.59-.35 4.76 1.155 6.965 1.12 1.61.63 2.625-1.12 3.01-3.745.805-5.425 3.955-4.27 7.735.805 2.59 2.205 4.655 4.655 6.055 1.61.91 3.185 1.855 4.445 3.255 1.995 2.17 1.995 4.655.07 6.825-1.26 1.4-2.625 1.82-4.27.665-.91-.63-1.855-1.225-2.975-.56-2.24 1.295-3.64.105-4.725-1.68-.665-1.12-1.085-2.38-1.61-3.57-.245-.525-.595-.91-1.225-.91-.735 0-1.225.525-1.225 1.155.105 4.69-4.445 6.58-6.125 10.185-.56 1.225-1.855 1.295-2.905.28-3.29-3.255-5.53-5.775-1.575-10.885.28-.35.56-.735.805-1.12.49-.735.805-1.54.105-2.31-.735-.84-1.68-.98-2.73-.56-1.26.525-1.96 1.68-2.765 2.695-1.96 2.52-3.745 2.94-6.545 1.575-1.015-.49-1.96-.595-3.08-.385-2.205.42-3.255-.945-2.31-2.975.665-1.47 1.155-2.975 1.68-4.515 1.26-3.57 4.48-4.62 7.7-5.425a14.95 14.95 0 0 1 7.945.21c3.325.945 5.32-.35 6.09-3.64 1.61-7 3.43-14.07 3.92-21.21.315-4.585 1.785-9.24.63-13.93-.035-.14-.035-.315-.035-.455 0-3.5 6.86-9.45 10.325-8.855 2.87.49 5.53.175 8.295-.945 2.87-1.155 6.055-1.54 9.03-2.66 3.395-1.295 6.265-3.185 8.575-5.985a17 17 0 0 1 2.065-2.135c1.365-1.225 2.73-1.12 3.64.525 2.24 4.165 5.145 7.595 9.66 9.415 1.715.7 2.135 2.205 1.645 4.06-1.89 7.35-6.02 12.495-13.72 14.245-2.94.63-5.88 1.925-9.135 1.68m60.48-15.715c-.175-2.59.875-3.745 2.345-4.585 3.535-1.96 6.755-4.13 8.575-8.015 1.19-2.52 3.01-2.415 4.935-.42 6.265 6.685 13.86 10.57 23.205 10.99 4.655.21 9.38.875 12.46 5.25.805 1.155 1.68 2.345 1.645 3.71-.07 3.535.21 7.07.49 10.535.35 4.76.56 9.59 1.33 14.35.49 2.94 1.26 5.845 1.505 8.82.455 5.6 4.235 7.21 9.135 6.3 6.72-1.26 13.3 2.555 14.035 10.01.14 1.26-.63 2.31-1.645 2.87-3.395 1.89-6.65 2.24-9.24-1.12-.595-.805-1.155-1.645-1.82-2.38-.595-.63-1.365-1.015-2.275-.56-.98.49-1.12 1.365-.98 2.345.175 1.295 1.085 2.205 1.75 3.22 2.17 3.29.7 7.42-3.08 8.54-.42.105-1.015.175-1.33-.035-3.08-2.31-7.875-3.115-7.665-8.47.035-.7-.35-1.365-1.12-1.575s-1.33.28-1.785.805c-.91 1.12-1.75 2.345-2.695 3.43-1.085 1.225-2.38 1.715-3.885.7-1.015-.7-2.065-.63-3.08-.21-1.75.7-2.94-.14-4.025-1.365-1.085-1.26-.77-2.555-.07-3.85.805-1.54 1.925-2.765 3.64-3.325.945-.315 1.785-.875 2.73-1.225 5.565-1.925 6.02-9.73 2.31-13.02-8.75-1.015-2.555-3.955-2.52-6.58.07-5.005-.63-9.94-2.205-14.665-1.435-4.305-4.2-5.46-8.575-4.585-3.92.77-7.98.63-11.935.315-4.97-.42-9.555-2.065-13.545-5.215-3.85-3.045-5.845-7.035-6.615-10.99m-17.115-186.62c5.11-.84 10.36-.735 15.365-2.45 2.205-.77 3.92-2.065 5.635-3.465.84-.7 1.645-1.47 2.835-.77 1.295.735 1.68 1.855 1.54 3.325-.28 3.64-2.59 5.845-5.46 7.49-2.415 1.435-4.9 2.73-7.945 2.8-2.03.035-3.78.945-4.445 3.325-.525 1.89-1.995 3.045-4.095 3.15-.63.035-1.33.035-1.47.805-.175.91.595 1.155 1.225 1.435 2.135.98 4.55.07 6.16-2.24 2.835-4.06 8.155-4.76 12.11-1.575 1.75 1.4 1.89 2.8.35 4.48-.455.525-.98.98-1.47 1.435-1.225 1.12-.98 2.135.21 3.045.105.105.245.175.385.28 1.295.945 2.905 1.89 2.415 3.78-.56 1.995-2.415 2.73-4.305 2.975-1.68.21-3.36.105-5.075.175-1.4.035-2.135.595-1.925 2.17.35 2.59-.21 3.36-2.87 3.36-6.125.035-12.005-1.33-17.675-3.57-2.87-1.12-5.11-2.695-6.265-5.88-.875-2.415-2.905-4.13-5.915-3.92-.945.07-1.96-.105-2.31-1.155-.385-1.19.56-1.785 1.435-2.345 1.575-.98 3.325-1.575 5.18-1.855.525-.07 1.085-.14 1.575-.35.98-.455 2.17-.945 1.785-2.275-.385-1.4-1.75-1.505-2.87-1.155-3.605 1.19-7 2.765-9.415 5.915-.56.735-1.05 1.505-1.645 2.24-.91 1.12-1.995 2.135-3.535 1.225-1.47-.91-2.275-2.205-1.54-4.095 1.575-4.2 4.445-7.385 8.12-9.73 7.315-4.55 15.47-6.125 23.905-6.58m-135.205 57.295c-.525-7.875 2.1-14.595 6.79-20.615.805-1.05 1.575-2.555 3.29-1.925 1.575.56 1.295 2.1 1.295 3.395.245 17.255 8.75 29.295 23.485 37.52 3.675 2.065 7.525 3.325 11.585 4.305 3.36.805 4.305 2.1 4.41 5.495v.7c.35 5.81-.175 7.7-7.77 6.86-3.92-.455-7.91-.525-11.83-1.295-6.44-1.26-12.075-3.92-17.08-7.98-2.485-2.03-4.725-4.375-6.93-6.72-4.095-4.48-7.175-13.055-7.245-19.74m237.51-31.045c.21-3.99.175-7.665-1.995-10.955-.63-.945-.63-2.1.35-2.94.945-.805 2.1-.665 2.975.035 3.605 2.73 7.07 5.705 9.555 9.52 1.505 2.275 3.08 4.55 3.99 7.245 3.22 9.485 1.89 18.375-2.555 27.265-4.165 8.295-11.025 13.37-18.69 17.71-2.8 1.61-6.09 2.45-9.24 3.395-2.52.77-4.165-.21-5.04-2.695-.665-1.89-1.155-3.815-1.61-5.74-.35-1.54.525-2.625 1.645-3.57 2.065-1.715 4.27-3.255 6.195-5.145 6.44-6.405 10.64-14.105 13.02-22.89 1.085-3.815 1.925-7.56 1.4-11.235"/><path d="M1119.021 661.606c-1.54.035-3.08.14-4.62.035-2.8-.175-4.06-1.4-4.095-4.2-.14-8.085-.875-7.385 7.07-9.485 12.565-3.36 22.05-10.92 28.49-22.085 2.555-4.445 3.85-9.485 4.41-14.63a24 24 0 0 1 1.015-4.69c.525-1.61 1.925-1.855 2.975-.49 4.13 5.32 7.455 11.305 7.595 17.955.175 8.015-2.1 15.68-7.805 21.945-7.385 8.085-16.415 12.845-27.09 14.875-2.625.455-5.25.84-7.945.77m-211.68-57.96c.945-7.91 2.24-15.365 8.19-21.315 2.765-2.765 5.39-5.425 9.065-6.825.875-.315 1.75-.77 2.555.07.945.98.21 1.855-.28 2.695-3.605 6.265-3.78 12.88-2.59 19.81 1.19 7 4.095 13.335 7.56 19.355 2.205 3.85 5.005 7.35 8.68 10.01.245.175.525.315.77.525 4.97 3.605 5.74 7.105 2.625 12.39-.91 1.575-2.275 2.485-4.235 1.89-5.67-1.68-10.92-3.92-15.82-7.525-6.195-4.55-9.66-10.885-13.02-17.29-2.31-4.165-2.695-9.135-3.5-13.79"/><path d="M929.391 592.24c1.19-8.016 3.22-15.75 9.45-21.35 4.83-4.376 10.745-6.756 17.5-6.16 1.19.104 2.45.244 2.835 1.54.385 1.364-.665 2.134-1.75 2.59-4.375 1.75-5.67 5.494-6.335 9.694-.42 2.73-.945 5.39-.84 8.19.315 7.84 2.765 15.015 6.475 21.805 1.645 3.01 1.715 4.305-.42 6.86-2.31 2.765-4.235 5.845-5.95 8.995-1.575 2.94-2.975 3.115-5.075.455-1.995-2.52-4.41-4.655-6.3-7.315-4.76-6.615-7.28-14.14-9.31-21.875-.28-1.085-.175-2.275-.28-3.43m194.495-.56c.21 7.07-1.75 13.615-5.11 20.055-2.59 4.9-5.95 9.1-9.24 13.405-2.66 3.465-4.585 3.255-6.72-.49a30.3 30.3 0 0 0-5.005-6.58c-2.975-3.01-3.325-4.62-.98-8.085 2.555-3.815 4.235-8.05 5.635-12.285 2.485-7.35 3.535-14.91-.7-22.19-.98-1.715-2.275-3.045-3.745-4.305-.875-.735-2.03-1.505-1.505-2.835.595-1.435 1.925-2.31 3.535-1.96 4.13.945 8.26 1.925 11.725 4.515 4.13 3.115 7.385 7.07 10.395 11.305 2.135 2.94 1.365 6.125 1.715 9.45m-202.3 85.715c-9.24.28-17.815-2.065-25.375-7.315-5.565-3.885-9.765-9.065-11.62-15.82a.5.5 0 0 1-.07-.21c-.385-5.565.105-11.025 2.31-16.135.98-2.24 3.36-2.17 4.34.175 2.485 6.02 6.65 10.64 11.375 14.84 4.34 3.85 8.995 7 14.735 8.645 5.565 1.61 11.025 3.185 16.87 3.115 1.715-.035 3.325-.42 4.97-.805 3.15-.77 4.9.56 5.005 3.78.175 5.32-1.225 6.895-7.315 7.665-1.925.245-3.78.63-5.635 1.085-1.26.315-2.52.805-3.78.91-1.96.105-3.885.035-5.81.07m192.36-11.69c2.1-.385 4.235.91 6.58.84 7.735-.28 15.05-1.785 22.155-5.215 5.915-2.87 10.57-6.965 14.98-11.62 1.715-1.82 2.415-4.235 3.605-6.37.455-.805.84-1.645 1.4-2.38 1.015-1.295 2.205-1.33 3.325-.175 1.365 1.4 2.275 3.15 2.695 5.04 2.31 10.395.245 17.5-8.4 24.22a43.75 43.75 0 0 1-18.9 8.575c-6.545 1.26-13.16 1.435-19.775.035-3.43-.735-7-.595-10.255-2.275-3.115-1.61-3.885-2.625-3.325-5.18 1.155-5.18 1.435-5.46 5.915-5.495m3.22 75.32c-6.335.14-10.605-3.08-14.98-6.02-7.315-4.865-11.515-12.145-15.12-19.845-.91-1.925-1.33-4.06-1.785-6.16-.42-1.925.49-3.465 2.03-4.55 1.33-.91 2.73-1.715 4.13-2.485 1.4-.805 2.345 0 3.185.98 1.435 1.715 2.695 3.57 4.235 5.145 7.35 7.56 16.17 12.915 26.285 15.855 3.325.98 6.86 1.47 10.43 1.435 1.155 0 2.415-.07 3.045 1.155.7 1.365-.455 2.1-1.225 2.94-4.445 4.83-9.835 8.26-15.925 10.64-1.575.595-3.22 1.015-4.305.91m-150.395-34.16c-.35 1.82-.49 4.305-1.645 6.37-3.15 5.53-5.81 11.375-10.22 16.065-2.625 2.8-5.145 5.705-8.645 7.49-4.795 2.45-9.87 2.38-14.7.7-6.265-2.17-11.83-5.775-16.87-10.115-.84-.735-1.645-1.54-1.12-2.765.56-1.4 1.82-1.26 2.975-1.05 4.34.84 8.33-.315 12.355-1.75 8.435-3.045 15.645-8.015 22.47-13.685 1.925-1.61 3.045-3.85 4.725-5.6 2.66-2.73 8.26-1.995 10.185 1.33.42.805.525 1.61.49 3.01"/><path d="M1138.793 699.196c-11.515.035-22.225-3.115-32.27-8.505-4.34-2.31-4.76-7.665-1.12-11.025 1.085-1.015 2.17-.875 3.325-.105 2.38 1.575 5.04 2.52 7.77 3.395 3.745 1.19 7.63 1.575 11.515 1.89 2.065.175 3.99 1.085 6.125.875 6.3-.63 12.285-2.415 18.13-4.795a37.1 37.1 0 0 0 11.165-7.14c.735-.665 1.47-1.155 2.485-.77.945.35 1.4 1.19 1.54 2.135.735 4.69-2.73 15.575-8.61 18.165-4.2 1.855-8.155 4.095-12.67 5.25-2.485.56-4.935.525-7.385.63m-224.14-2.31c-5.145.84-10.57-1.015-15.715-3.43-8.295-3.92-13.65-11.445-13.545-21 0-1.19.07-2.38 1.26-3.01 1.33-.7 2.24.28 3.01 1.085 5.18 5.355 11.62 8.435 18.62 10.57 1.68.525 3.43.805 5.18 1.05 5.775.84 11.445 1.505 17.255-.28 4.375-1.33 8.995-1.925 13.16-3.99.385-.21.945-.385 1.33-.28 2.8.805 3.115 3.57 4.2 5.67.805 1.54-.21 2.625-1.33 3.5-1.05.77-2.1 1.54-3.36 1.96-1.365.49-2.765 1.015-3.99 1.785a21.3 21.3 0 0 1-7.175 2.87c-3.045.595-5.775 2.24-8.995 2.695-3.08.42-6.09.735-9.905.805"/><path d="M919.454 717.186c-8.19.63-15.05-2.59-21.035-7.735-2.835-2.45-4.935-5.705-5.215-9.695-.07-.945.035-1.89.945-2.45s1.54.21 2.275.595c3.395 1.715 6.65 3.745 10.605 4.13 2.485.245 4.725 1.785 7.385 1.61 7.035-.49 13.685-2.45 20.265-4.865 5.285-1.925 10.08-4.865 14.98-7.56 1.785-.98 3.22-1.26 4.62.49 1.96 2.45 2.345 5.005.77 6.65a51 51 0 0 1-3.99 3.815c-7.7 6.545-15.54 12.81-25.9 14.595-1.855.35-3.78.315-5.705.42m219.87 2.345c-11.27-.385-20.825-2.555-29.435-8.19-4.515-2.94-9.1-5.74-12.215-10.325-2.03-3.01-1.295-6.3 1.785-8.225 1.295-.805 2.38-.42 3.395.385 8.54 7 18.865 9.555 29.33 11.83 5.705 1.26 11.2-.28 16.695-1.47 2.345-.49 4.55-1.26 6.65-2.415 1.715-.945 3.045-.035 3.045 1.925 0 1.505-.56 2.835-1.47 4.025-1.085 1.47-2.275 2.905-3.255 4.445-3.64 5.705-9.31 7.49-14.525 8.015m-154.455 1.4c-.63-2.59-1.05-5.25-1.96-7.77a17.85 17.85 0 0 1-.595-9.94c.91-4.2 2.275-8.26 3.64-12.32 1.015-2.905 2.485-3.36 4.69-1.295 2.24 2.1 4.585 4.06 7.175 5.775s3.92 4.27 3.955 7.42c.035 2.065 3.325 17.885-3.325 25.06-2.31 3.78-8.47 6.3-13.615 3.36-1.4-.805-1.96-2.03-1.54-3.71.595-2.17 1.085-4.34 1.575-6.58m84.84-12.46c-.49 2.38-.28 5.25-1.33 7.98-1.19 3.115-1.085 6.335-.35 9.52.455 1.925 1.015 3.78-.77 5.285-1.89 1.575-4.095 1.96-6.475 1.47-6.055-1.26-8.645-5.74-9.905-11.165-.77-3.325-1.12-6.72-.805-10.22s.035-6.965 1.26-10.43c1.085-3.01 2.87-5.25 5.495-6.825 1.68-.98 3.185-2.1 4.55-3.465 2.065-2.03 3.43-1.785 4.69.91 1.68 3.64 2.38 7.595 3.08 11.515.28 1.68.35 3.36.56 5.425m-40.6-51.24c.595-4.97-.875-9.415-3.36-13.615-1.015-1.75-1.4-3.71-1.995-5.6-.525-1.75-.035-2.975 1.54-3.815 2.24-1.19 3.885-2.94 4.935-5.285.42-.98 1.015-2.03 2.275-2.03 1.295 0 1.715 1.085 2.135 2.1 1.155 2.87 2.975 4.725 6.37 4.585 1.995-.07 3.29 1.295 4.095 2.905 1.12 2.17 1.995 4.48 1.96 7-.035 4.27.35 8.505-1.155 12.74-1.68 4.69-6.755 9.275-11.655 9.8-3.045.315-5.005-1.365-5.11-4.41 0-1.435 0-2.905-.035-4.375m-46.655 6.23c1.82-.105 2.625.665 2.485 2.345-.07.7-.14 1.365-.245 2.065-.7 3.535-.945 7.035.07 10.64.7 2.45-.525 4.165-2.835 5.635-5.11 3.185-9.415 7.315-12.46 12.635-1.26 2.205-2.52 2.485-4.76 1.225-2.17-1.225-3.885-2.835-5.075-5.145-1.435-2.8-3.675-5.11-5.005-7.98-1.015-2.275-.63-3.08 1.4-4.55 4.165-3.01 8.54-5.67 12.425-9.065 3.745-3.325 8.12-5.74 12.845-7.455.42-.21.875-.28 1.155-.35m85.26 17.15c.385-1.96.77-3.92 1.12-5.88.385-2.24.28-4.445-.455-6.58-.42-1.225-.35-2.24.7-3.115 1.015-.805 2.03-.49 3.01.035 6.405 3.36 12.25 7.63 18.095 11.83 1.82 1.295 3.535 2.695 5.32 4.06 1.855 1.435 2.415 3.185 1.645 5.495-1.89 5.635-5.88 9.625-10.325 13.23-1.61 1.295-3.255.91-3.955-.875-2.52-6.3-7.805-10.115-12.67-14.315-1.26-1.085-2.73-1.925-2.485-3.885"/><path d="M1019.761 731.046c-.14 1.68.035 3.36-.21 5.075-.56 4.025-3.045 6.405-6.3 8.26-4.655 2.625-13.23-1.505-14.245-6.755-.245-1.33.21-2.415 1.05-3.395 3.955-4.55 6.965-10.15 6.825-22.19-.105-2.03-.35-3.955-.91-5.88-.315-1.12-.385-2.415.84-3.08 1.26-.665 2.065.42 2.66 1.225 5.95 7.91 10.22 16.52 10.29 26.74m12.775-8.295c1.96-6.72 5.39-12.67 10.115-17.85.63-.7 1.19-1.785 2.45-1.155 1.19.595 1.12 1.75.91 2.835-1.82 9.24-.245 17.955 3.99 26.25.385.735.805 1.505 1.155 2.24 1.225 2.52.875 4.62-1.225 6.37-3.185 2.625-6.825 4.55-10.99 2.94-3.92-1.54-6.3-4.69-6.965-8.995-.245-1.715-.175-10.185.56-12.635m-86.52-70.455c.875-5.67 1.295-11.375 3.185-16.73 1.295-3.675 2.695-4.025 5.985-1.89 1.715 1.12 3.255 2.52 5.285 3.22 2.24.735 4.13.525 5.985-1.05 2.8-2.345 4.585-2.31 7.35.035 2.065 1.715 4.095 3.535 5.6 5.74.805 1.19 1.645 2.52.875 4.06-.735 1.505-2.24 1.435-3.605 1.435-4.375 0-8.26 1.505-11.795 3.92-1.61 1.085-3.15 2.135-5.285 1.435-1.12-.35-2.24.07-3.185.91a43 43 0 0 1-3.01 2.52c-1.4 1.05-2.73 2.38-4.76 1.365-1.54-.84-2.625-2.87-2.625-4.97m71.12 5.075c-2.45 3.01-3.395 3.5-5.495.315-1.96-2.975-4.725-5.215-7.315-7.595-2.87-2.625-3.99-5.6-4.165-9.485-.28-6.23 1.26-11.62 5.285-16.38 1.47-1.75 2.485-1.96 3.885-.21 2.135 2.66 4.27 5.18 7.455 6.65.91.42 1.4 1.4 1.505 2.45.42 3.92 3.78 18.2-1.155 24.255m89.075-6.02c.035 1.54.14 3.08.035 4.62-.21 2.975-2.345 4.165-4.935 2.695-2.03-1.12-3.71-2.73-5.425-4.27-1.26-1.12-2.66-1.785-4.375-1.61-2.1.21-3.885-.7-5.705-1.54-3.045-1.47-6.09-2.835-9.59-2.905-2.415-.07-3.605-2.275-2.59-4.48 1.26-2.765 3.115-5.11 5.635-6.895 2.31-1.645 4.725-1.89 6.79 0 3.815 3.535 7.28 1.89 10.885-.105.945-.525 1.785-1.26 2.73-1.715 1.89-.91 3.29-.42 4.06 1.575 1.82 4.725 2.485 9.625 2.485 14.63"/><path d="M983.252 633.29c0 .56 0 .945.035 1.33 0 .945-.035 1.925-.98 2.415-1.12.595-1.89-.315-2.59-.945-1.295-1.19-2.45-2.555-3.745-3.745-3.57-3.29-7-3.535-10.955-.805-2.24 1.54-4.48 1.19-6.79.315-.56-.21-1.05-.595-1.575-.945-4.34-2.765-4.375-3.045-1.47-7.245 1.295-1.89 2.17-4.025 3.92-5.635 1.085-1.015 2.31-1.645 3.745-1.225 1.645.49 2.8-.14 3.99-1.12 3.465-2.94 7.315-2.625 10.395.735 2.8 3.045 4.2 6.79 4.97 10.71.35 2.1 1.33 4.13 1.05 6.16m91.315 19.145c4.13.735 8.47 1.96 12.39 4.27 1.68.98 3.29 1.925 5.32 1.96.525 0 1.12.14 1.54.42 2.8 1.925 5.95 3.115 9.135 4.2 1.82.63 2.38 1.96 1.96 3.815-.7 3.255-1.96 6.265-3.325 9.275-.98 2.135-2.17 2.38-4.27 1.225-3.64-2.065-6.335-5.285-9.695-7.7-4.515-3.29-9.1-6.51-14.105-8.995-3.01-1.505-3.57-2.66-2.87-5.6.42-1.96 1.61-2.87 3.92-2.87m-38.92 135.94c-.035-1.855-.14-3.185-.035-4.48.14-2.17 1.435-2.94 3.465-2.1.35.14.735.28 1.015.56 3.01 3.185 7 4.865 10.71 6.93 2.45 1.365 4.27 3.255 4.06 6.405-.07 1.33.84 2.275 1.68 3.185 1.05 1.12 2.135 2.205 3.185 3.325 2.695 2.73 2.905 6.125 2.625 9.625-.07.98-.525 1.785-1.435 2.205-1.05.455-1.785-.28-2.38-.98-2.94-3.64-6.93-5.6-11.13-7.49-5.39-2.45-9.485-6.37-11.375-12.25-.56-1.855-.28-3.675-.385-4.935m-20.615-.56c.84 5.25-1.82 9.73-5.81 13.72-1.715 1.715-3.885 2.52-6.02 3.255-4.025 1.435-7.455 3.535-10.22 6.79-.35.42-.77.77-1.19 1.085-.7.56-1.435 1.295-2.45.77-.98-.525-1.295-1.4-1.365-2.485-.245-4.305 1.68-7.805 4.375-10.815 1.995-2.205 3.99-4.095 4.025-7.385 0-1.68 1.26-3.01 2.87-3.605 4.34-1.61 7.84-4.515 11.515-7.14.84-.595 1.575-1.645 2.835-1.05 1.33.63 1.4 1.89 1.4 3.15-.035 1.05 0 2.065.035 3.71M976.427 651.98c4.62-.07 6.265 1.05 6.23 4.025 0 1.785-.735 3.115-2.555 3.605-7.035 1.925-12.53 6.265-17.745 11.095-2.17 2.03-4.445 4.025-7.21 5.25-2.1.945-3.5.56-4.655-1.435-1.855-3.185-2.625-6.685-2.87-10.29-.105-1.61.875-2.45 2.345-2.59 2.94-.28 5.46-1.47 7.77-3.22.315-.245.63-.56.98-.595 5.25-.28 8.96-4.55 14.035-5.355 1.295-.175 2.625-.595 3.675-.49m90.93-5.6c.42 4.34-.245 8.47-2.135 12.355s-4.375 4.2-6.895.735c-3.955-5.39-8.855-21.21-7.63-22.89 1.085-1.505 2.87-1.715 4.375-2.45 1.715-.875 3.08-1.96 3.815-3.78.455-1.05 1.12-2.1 2.485-2.1 1.365.035 2.03 1.05 2.45 2.135 1.925 5.18 4.06 10.325 3.535 15.995m14.595-30.905c1.785-.28 3.36.385 4.62 1.82 1.19 1.365 2.59 2.065 4.515 1.47 1.015-.315 2.03.21 2.66 1.015 1.855 2.31 3.885 4.55 5.11 7.35.735 1.645.525 3.045-.805 4.13-3.815 3.15-6.965 4.27-10.85 1.05-2.695-2.24-5.25-2.065-8.26-.105-1.96 1.26-3.5 2.94-5.18 4.55-.595.56-1.225 1.295-2.205.945-1.015-.385-1.225-1.295-1.225-2.275-.035-7.315 2.24-13.685 7.665-18.795 1.12-1.05 2.45-1.225 3.955-1.155m-53.725 4.585c.315 2.73-.56 4.97-1.47 7.175-.805 2.03-2.275 2.59-4.27 1.68-2.905-1.295-5.53-3.01-7.945-5.04-2.8-2.415-3.36-5.53-2.205-8.785 1.47-4.2 3.325-8.225 5.04-12.32.56-1.33 1.61-1.89 2.975-1.575 1.925.42 4.585.735 4.62 3.08.105 4.9 1.925 9.275 3.15 13.825.245.665.105 1.47.105 1.96m20.37 1.295c.385 3.71-.84 6.685-4.27 8.435-2.625 1.33-5.355.7-6.02-2.1-1.54-6.16-6.02-10.85-7.91-16.765-.315-.945-.7-1.89-.91-2.835-.665-3.045.7-4.585 3.78-4.9 3.15-.315 5.425.7 7.28 3.29 2.24 3.15 5.74 5.285 7.035 9.275.56 1.855 1.155 3.605 1.015 5.6m-51.38 20.125c.42 4.865-.035 9.625-1.155 14.35-.455 1.925-1.435 3.535-2.87 4.9-1.68 1.61-2.695 1.575-4.235-.21-2.31-2.695-2.905-6.16-3.22-9.45-.665-7.28.63-14.315 3.64-21.035.595-1.365 1.33-2.835 2.94-2.905 1.575-.07 2.1 1.505 2.94 2.59 1.47 1.96 2.03 4.06 1.89 6.44-.07 1.785.07 3.535.07 5.32m-.91-19.145c.07-2.87.665-5.565 1.89-8.225 1.925-4.235 4.06-8.365 5.355-12.88.07-.28.21-.63.42-.805 2.38-1.785 5.04-3.15 7.91-3.745 1.54-.315 2.135 1.19 2.275 2.625.35 3.255-.49 6.265-2.17 9.03-2.45 4.06-5.145 8.015-8.225 11.655-1.295 1.54-2.24 3.29-3.255 5.005-.56.91-1.05 2.03-2.415 1.645-1.295-.35-1.715-1.435-1.715-2.695-.035-.525-.035-1.05-.07-1.61m-6.65-35.105c3.36.315 6.265 1.855 9.1 3.5 1.33.77 1.155 2.275.91 3.57-.28 1.33-1.085 2.415-2.555 2.66-2.73.42-5.425.91-8.155 1.085-3.57.245-6.72 1.26-9.38 3.71-.91.84-1.855 1.855-3.185 1.12-1.47-.805-1.715-2.275-1.435-3.815.945-5.46 4.69-8.4 9.45-10.36 1.61-.7 3.325-1.47 5.25-1.47"/><path d="M1053.361 630.386c-.665.385-1.26.91-2.1.385-.77-.49-.91-1.225-.77-1.995.21-1.435.385-2.905.735-4.305 1.05-4.06 0-7.735-2.1-11.165-1.33-2.17-2.765-4.235-4.515-6.09-.595-.63-1.435-1.435-.525-2.38.7-.735 1.575-.35 2.345.07 4.935 2.73 8.365 6.86 10.815 11.865.7 1.505 3.045 9.73-3.885 13.615m-58.38-29.54c1.75.035 3.36.28 3.745 2.31.385 1.995.21 3.815-2.03 4.795-5.075 2.17-9.695.525-14.28-1.575-.665-.315-1.225-.945-1.155-1.855.07-.805.665-1.225 1.365-1.365 4.13-.805 8.26-1.54 12.355-2.31m70.98 71.575c0 4.55-1.96 8.435-4.305 12.145-.49.805-1.33 1.82-2.45 1.12s-.49-1.75-.105-2.66c1.54-3.885 2.345-7.91 2.485-12.075.07-1.505.07-3.325 1.96-3.29 1.785.035 2.38 1.68 2.38 3.36 0 .455.035.91.035 1.4m-78.12.84c-.035-2.065-.105-3.57-.07-5.11.035-.875.35-1.75 1.365-1.855s1.505.7 1.785 1.505c.21.63.28 1.365.245 2.03-.245 4.445.805 8.645 2.275 12.775.42 1.155 1.61 2.835-.28 3.57-1.505.595-2.135-1.155-2.73-2.24-1.925-3.465-3.115-7.14-2.59-10.675m20.685-80.36c-.245 1.435-.875 2.8-2.45 2.73-1.785-.07-2.59-1.61-2.625-3.22 0-1.435 1.015-2.52 2.45-2.485 1.645.07 2.415 1.365 2.625 2.975"/></g><path d="m1251.384 784.572 2.3 8.54a8.74 8.74 0 0 0 6.16 6.162l8.542 2.3-8.54 2.3a8.74 8.74 0 0 0-6.16 6.16l-2.302 8.541-2.3-8.54a8.74 8.74 0 0 0-6.16-6.16l-8.54-2.303 8.54-2.3a8.74 8.74 0 0 0 6.162-6.16Z" vector-effect="non-scaling-stroke"/><path d="m1215.848 780.504 2.977 11.053a11.31 11.31 0 0 0 7.972 7.973l11.053 2.976-11.053 2.977a11.31 11.31 0 0 0-7.972 7.973l-2.977 11.052-2.977-11.052a11.31 11.31 0 0 0-7.972-7.973l-11.05-2.979 11.052-2.977a11.31 11.31 0 0 0 7.973-7.972Zm-49.476-6.574 3.788 14.067a14.39 14.39 0 0 0 10.148 10.147l14.067 3.79-14.067 3.787a14.39 14.39 0 0 0-10.148 10.147l-3.788 14.068-3.788-14.068a14.39 14.39 0 0 0-10.148-10.147l-14.064-3.79 14.067-3.789a14.39 14.39 0 0 0 10.147-10.148Zm-369.348 45.166-2.3-8.54a8.74 8.74 0 0 0-6.16-6.162l-8.542-2.3 8.541-2.3a8.74 8.74 0 0 0 6.16-6.16l2.301-8.54 2.3 8.54a8.74 8.74 0 0 0 6.16 6.16l8.54 2.302-8.54 2.3a8.74 8.74 0 0 0-6.162 6.16Z" vector-effect="non-scaling-stroke"/><path d="m832.56 823.164-2.977-11.053a11.31 11.31 0 0 0-7.972-7.973l-11.053-2.976 11.053-2.977a11.31 11.31 0 0 0 7.972-7.973l2.977-11.052 2.977 11.052a11.31 11.31 0 0 0 7.972 7.973l11.051 2.98-11.053 2.976a11.31 11.31 0 0 0-7.973 7.972Z" vector-effect="non-scaling-stroke"/><path d="m881.634 829.08-3.788-14.067a14.39 14.39 0 0 0-10.148-10.147l-14.067-3.789 14.067-3.788a14.39 14.39 0 0 0 10.148-10.147l3.788-14.068 3.788 14.068a14.39 14.39 0 0 0 10.148 10.147l14.064 3.791-14.067 3.788a14.39 14.39 0 0 0-10.147 10.148Z" vector-effect="non-scaling-stroke"/></g><path fill="transparent" stroke="transparent" stroke-width="2.672" d="M253.118 187.5h1493.764v1125H253.118z"/></g></svg>